<svg xmlns="http://www.w3.org/2000/svg" xmlns:xlink="http://www.w3.org/1999/xlink" width="42" height="42" id="code"><defs><linearGradient id="b" x1="1056.035" x2="1031.176" y1="544.13" y2="517.701" gradientTransform="translate(-1384.02 316.47) scale(1.34562)" gradientUnits="userSpaceOnUse" xlink:href="#a"></linearGradient><linearGradient id="a"><stop offset="0" stop-color="#5a5a5a"></stop><stop offset="1" stop-color="#656e85"></stop></linearGradient></defs><g transform="translate(0 -1010.362)"><rect width="42" height="42" y="1010.362" fill="url(#b)" rx="8.876" ry="8.876"></rect><path fill="#fff" d="M7.5 1018.362a.5.5 0 0 0-.5.5v22a.5.5 0 0 0 .5.5h4.25v-1H8v-17h24v10.237c.01.048.034.09.04.138.277-.226.62-.34.96-.348v-14.527a.5.5 0 0 0-.5-.5h-25zm.5 1h24v3H8v-3zm1.5 1a.5.5 0 0 0-.5.5.5.5 0 0 0 .5.5.5.5 0 0 0 .5-.5.5.5 0 0 0-.5-.5zm2 0a.5.5 0 0 0-.5.5.5.5 0 0 0 .5.5.5.5 0 0 0 .5-.5.5.5 0 0 0-.5-.5zm2 0a.5.5 0 0 0-.5.5.5.5 0 0 0 .5.5.5.5 0 0 0 .5-.5.5.5 0 0 0-.5-.5zm9.02 5a.5.5 0 0 0-.047 0 .5.5 0 0 0-.4.24l-4.993 7.989a.5.5 0 1 0 .848.529l4.992-7.988a.5.5 0 0 0-.4-.772zm-7.036 1a.5.5 0 0 0-.343.152l-2.963 2.965a.5.5 0 0 0-.102.12.5.5 0 0 0-.02.032.5.5 0 0 0-.001 0 .5.5 0 0 0-.006.014.5.5 0 0 0-.012.023.5.5 0 0 0-.01.027.5.5 0 0 0-.008.024.5.5 0 0 0-.005.021.5.5 0 0 0-.004.02.5.5 0 0 0-.002.014.5.5 0 0 0 .177.479l2.955 2.957a.5.5 0 1 0 .707-.707l-2.64-2.643 2.64-2.64a.5.5 0 0 0-.363-.86zm9.016 0a.5.5 0 0 0-.348.86l2.641 2.64-2.64 2.643a.5.5 0 1 0 .706.707l2.961-2.963a.5.5 0 0 0 .028-.744h-.002l-2.987-2.988a.5.5 0 0 0-.36-.153zm3.908 7a.5.5 0 0 0-.5.5v.895c-.31.096-.608.217-.896.367l-.63-.627a.5.5 0 0 0-.706 0l-1.543 1.541a.5.5 0 0 0 0 .707l.63.63c-.15.289-.276.587-.372.897H23.5a.5.5 0 0 0-.5.5v2.182a.5.5 0 0 0 .5.5h.893c.096.31.218.61.369.898l-.63.63a.5.5 0 0 0 0 .706l1.544 1.541a.5.5 0 0 0 .707 0l.63-.628c.288.15.586.272.895.369v.892a.5.5 0 0 0 .5.5h2.184a.5.5 0 0 0 .5-.5v-.892c.31-.096.608-.218.896-.368l.63.627a.5.5 0 0 0 .706 0l1.543-1.54a.5.5 0 0 0 0-.708l-.63-.63c.15-.288.276-.587.372-.897h.891a.5.5 0 0 0 .5-.5v-2.182a.5.5 0 0 0-.5-.5h-.893a5.385 5.385 0 0 0-.369-.898l.63-.629a.5.5 0 0 0 0-.707l-1.544-1.541a.5.5 0 0 0-.707 0l-.63.629a5.373 5.373 0 0 0-.895-.37v-.894a.5.5 0 0 0-.5-.5h-2.184zm.5 1h1.184v.719a.5.5 0 0 0 .388.488c.484.11.944.301 1.364.565a.5.5 0 0 0 .619-.07l.508-.506.836.834-.506.506a.5.5 0 0 0-.07.617c.262.42.451.883.56 1.367a.5.5 0 0 0 .488.39H35v1.182h-.719a.5.5 0 0 0-.488.389c-.11.483-.3.945-.564 1.365a.5.5 0 0 0 .07.62l.508.507-.836.834-.506-.504a.5.5 0 0 0-.617-.07c-.421.262-.884.452-1.368.56a.5.5 0 0 0-.388.487v.72h-1.184v-.718a.5.5 0 0 0-.388-.486 4.4 4.4 0 0 1-1.364-.565.5.5 0 0 0-.619.07l-.508.506-.836-.834.506-.506a.5.5 0 0 0 .07-.619 4.403 4.403 0 0 1-.56-1.365.5.5 0 0 0-.488-.39H24v-1.182h.719a.5.5 0 0 0 .488-.389c.11-.483.301-.945.564-1.365a.5.5 0 0 0-.07-.62l-.508-.507.836-.834.506.504a.5.5 0 0 0 .617.07c.421-.263.884-.454 1.368-.563a.5.5 0 0 0 .388-.484v-.723zm-12.283 1.73a.5.5 0 0 0-.5.5v.512a3.96 3.96 0 0 0-.422.172l-.361-.36a.5.5 0 0 0-.707 0l-1.06 1.061a.5.5 0 0 0 0 .707l.36.362a3.853 3.853 0 0 0-.175.422h-.51a.5.5 0 0 0-.5.5v1.5a.5.5 0 0 0 .5.5h.512c.05.144.105.284.172.422l-.36.36a.5.5 0 0 0 0 .708l1.06 1.06a.5.5 0 0 0 .708 0l.361-.36c.138.066.278.123.422.173v.512a.5.5 0 0 0 .5.5h1.5a.5.5 0 0 0 .5-.5v-.512a3.95 3.95 0 0 0 .422-.174l.361.362a.5.5 0 0 0 .707 0l1.06-1.061a.5.5 0 0 0 0-.71l-.359-.358a3.85 3.85 0 0 0 .174-.422h.51a.5.5 0 0 0 .5-.5v-1.5a.5.5 0 0 0-.5-.5h-.512a3.856 3.856 0 0 0-.174-.422l.362-.361a.5.5 0 0 0 0-.708l-1.06-1.06a.5.5 0 0 0-.708 0l-.361.361a3.797 3.797 0 0 0-.422-.176v-.51a.5.5 0 0 0-.5-.5h-1.5zm.5 1h.5v.339a.5.5 0 0 0 .389.486c.315.072.617.197.89.369a.5.5 0 0 0 .62-.07l.238-.238.353.353-.238.237a.5.5 0 0 0-.07.619c.17.274.296.575.367.89a.5.5 0 0 0 .486.391H21v.5h-.338a.5.5 0 0 0-.488.389 2.867 2.867 0 0 1-.367.888.5.5 0 0 0 .07.621l.238.239-.353.351-.237-.236a.5.5 0 0 0-.619-.07 2.872 2.872 0 0 1-.89.365.5.5 0 0 0-.391.488v.34h-.5v-.338a.5.5 0 0 0-.389-.488 2.881 2.881 0 0 1-.89-.367.5.5 0 0 0-.62.068l-.238.238-.353-.353.238-.239a.5.5 0 0 0 .07-.617 2.877 2.877 0 0 1-.367-.89.5.5 0 0 0-.486-.391h-.34v-.5h.338a.5.5 0 0 0 .488-.389c.072-.315.196-.617.367-.89a.5.5 0 0 0-.07-.62l-.238-.238.353-.353.237.236a.5.5 0 0 0 .619.07c.274-.171.575-.294.89-.365a.5.5 0 0 0 .391-.486v-.338zm12.375.272a2.51 2.51 0 0 0-2.5 2.498 2.51 2.51 0 0 0 2.5 2.5 2.51 2.51 0 0 0 2.5-2.5 2.51 2.51 0 0 0-2.5-2.498zm0 1c.826 0 1.5.672 1.5 1.498s-.674 1.5-1.5 1.5-1.5-.674-1.5-1.5c0-.825.674-1.498 1.5-1.498zm-12.125.707c-.903 0-1.646.744-1.646 1.647s.743 1.644 1.646 1.644c.903 0 1.646-.741 1.646-1.644 0-.903-.743-1.647-1.646-1.647zm0 1a.645.645 0 1 1 0 1.291.645.645 0 1 1 0-1.29z" color="#000" font-family="sans-serif" font-weight="400" overflow="visible" style="line-height:normal;text-indent:0;text-align:start;text-decoration-line:none;text-decoration-style:solid;text-decoration-color:#000;text-transform:none;block-progression:tb;isolation:auto;mix-blend-mode:normal"></path></g></svg>