<svg xmlns="http://www.w3.org/2000/svg" data-name="Layer 1" viewBox="0 0 512 512" id="devices"><path fill="#272a33" d="M457.33936,466.657a7.5,7.5,0,1,0,7.5,7.5A7.49974,7.49974,0,0,0,457.33936,466.657ZM489.5,332.585h-6.50732V275.55859a27.53081,27.53081,0,0,0-27.5-27.5H396.4082V167.62891a27.53079,27.53079,0,0,0-27.5-27.5H27.5a27.5308,27.5308,0,0,0-27.5,27.5V410.77734a27.5308,27.5308,0,0,0,27.5,27.5h97.16357a41.887,41.887,0,0,1-4.7583,26.95606l-13.09179,23.38769a15.47572,15.47572,0,0,0,13.50341,23.03614h65.77442a7.54928,7.54928,0,0,0,1.00024-.07422c.63428.04394,1.27246.07422,1.91773.07422H489.5a22.52554,22.52554,0,0,0,22.5-22.5V355.085A22.52554,22.52554,0,0,0,489.5,332.585Zm-34.00732-69.52637a12.5141,12.5141,0,0,1,12.5,12.5V332.585h-17.3086V287.86719a7.49974,7.49974,0,0,0-7.5-7.5H218.85254a7.49974,7.49974,0,0,0-7.5,7.5V434.44141a7.49975,7.49975,0,0,0,7.5,7.5H402.67822V459.25H194.044V275.55859a12.51409,12.51409,0,0,1,12.5-12.5ZM15,167.62891a12.51408,12.51408,0,0,1,12.5-12.5H368.9082a12.51408,12.51408,0,0,1,12.5,12.5v80.42968H206.544a27.5308,27.5308,0,0,0-27.5,27.5v91.88672H15ZM27.5,423.27734a12.51408,12.51408,0,0,1-12.5-12.5v-28.332H179.044v40.832H130.74927c-.02539-.00048-.051,0-.07666,0Zm134.00928,46.39454v14.48535a27.31944,27.31944,0,0,0,3.01758,12.5h-44.21a.476.476,0,0,1-.415-.709l13.09228-23.38867a56.96539,56.96539,0,0,0,6.79956-34.28223H179.044V459.25h-7.11182A10.434,10.434,0,0,0,161.50928,469.67188Zm27.5,26.98535a12.51409,12.51409,0,0,1-12.5-12.5V474.25H402.67822v14.90723a22.39344,22.39344,0,0,0,1.29,7.5ZM402.67822,355.085v71.85645H226.35254V295.36719H435.68408V332.585H425.17822A22.52554,22.52554,0,0,0,402.67822,355.085ZM497,489.15723a7.5082,7.5082,0,0,1-7.5,7.5H425.17822a7.5082,7.5082,0,0,1-7.5-7.5V355.085a7.5082,7.5082,0,0,1,7.5-7.5h17.23023a7.53263,7.53263,0,0,0,1.55127,0H474.717a7.53263,7.53263,0,0,0,1.55127,0H489.5a7.5082,7.5082,0,0,1,7.5,7.5Z"></path></svg>