<svg xmlns="http://www.w3.org/2000/svg" width="550" height="550" id="university-building"><path d="M504.904 147H430v-.238c0-19.72-16.095-35.762-35.879-35.762H284.815V70.533h55.386c5.523 0 10-4.477 10-10V19c0-5.523-4.477-10-10-10h-65.386c-5.523 0-10 4.477-10 10v92H155.587C135.632 111 120 126.708 120 146.762V147H44.803C25.062 147 9 163.382 9 183.518V531c0 5.523 4.477 10 10 10h512c5.523 0 10-4.477 10-10V183.518C541 163.382 524.808 147 504.904 147zM330.201 50.533h-45.386V29h45.386v21.533zM29 183.518C29 174.564 36.237 167 44.803 167H120v354H29V183.518zM140 157v-10.238c0-8.838 6.847-15.762 15.587-15.762h118.169a10.009 10.009 0 0 0 2.118 0h118.248c8.904 0 15.879 6.923 15.879 15.762V521h-36V391c0-5.523-4.477-10-10-10H185c-5.523 0-10 4.477-10 10v130h-35V157zm55 244h69v120h-69V401zm89 120V401h70v120h-70zm237 0h-91V167h74.904c8.725 0 16.096 7.564 16.096 16.518V521z"></path><path d="M93 190H55c-5.523 0-10 4.477-10 10v38c0 5.523 4.477 10 10 10h38c5.523 0 10-4.477 10-10v-38c0-5.523-4.477-10-10-10zm-10 38H65v-18h18v18zm10 45H55c-5.523 0-10 4.477-10 10v38c0 5.523 4.477 10 10 10h38c5.523 0 10-4.477 10-10v-38c0-5.523-4.477-10-10-10zm-10 38H65v-18h18v18zm10 44H55c-5.523 0-10 4.477-10 10v38c0 5.523 4.477 10 10 10h38c5.523 0 10-4.477 10-10v-38c0-5.523-4.477-10-10-10zm-10 38H65v-18h18v18zm10 45H55c-5.523 0-10 4.477-10 10v38c0 5.523 4.477 10 10 10h38c5.523 0 10-4.477 10-10v-38c0-5.523-4.477-10-10-10zm-10 38H65v-18h18v18zm412-286h-38c-5.523 0-10 4.477-10 10v38c0 5.523 4.477 10 10 10h38c5.523 0 10-4.477 10-10v-38c0-5.523-4.477-10-10-10zm-10 38h-18v-18h18v18zm10 45h-38c-5.523 0-10 4.477-10 10v38c0 5.523 4.477 10 10 10h38c5.523 0 10-4.477 10-10v-38c0-5.523-4.477-10-10-10zm-10 38h-18v-18h18v18zm10 44h-38c-5.523 0-10 4.477-10 10v38c0 5.523 4.477 10 10 10h38c5.523 0 10-4.477 10-10v-38c0-5.523-4.477-10-10-10zm-10 38h-18v-18h18v18zm10 45h-38c-5.523 0-10 4.477-10 10v38c0 5.523 4.477 10 10 10h38c5.523 0 10-4.477 10-10v-38c0-5.523-4.477-10-10-10zm-10 38h-18v-18h18v18zM185 247h68c5.523 0 10-4.477 10-10v-68c0-5.523-4.477-10-10-10h-68c-5.523 0-10 4.477-10 10v68c0 5.523 4.477 10 10 10zm10-68h48v48h-48v-48zm101 68h68c5.523 0 10-4.477 10-10v-68c0-5.523-4.477-10-10-10h-68c-5.523 0-10 4.477-10 10v68c0 5.523 4.477 10 10 10zm10-68h48v48h-48v-48zM185 354h68c5.523 0 10-4.477 10-10v-68c0-5.523-4.477-10-10-10h-68c-5.523 0-10 4.477-10 10v68c0 5.523 4.477 10 10 10zm10-68h48v48h-48v-48zm101 68h68c5.523 0 10-4.477 10-10v-68c0-5.523-4.477-10-10-10h-68c-5.523 0-10 4.477-10 10v68c0 5.523 4.477 10 10 10zm10-68h48v48h-48v-48z"></path></svg>